<?xml version="1.0" standalone="no"?>
<!DOCTYPE svg PUBLIC "-//W3C//DTD SVG 20010904//EN"
 "http://www.w3.org/TR/2001/REC-SVG-20010904/DTD/svg10.dtd">
<svg version="1.0" xmlns="http://www.w3.org/2000/svg"
 width="512.000000pt" height="512.000000pt" viewBox="0 0 512.000000 512.000000"
 preserveAspectRatio="xMidYMid meet">
<metadata>
Created by potrace 1.16, written by Peter Selinger 2001-2019
</metadata>
<g transform="translate(0.000000,512.000000) scale(0.100000,-0.100000)"
fill="#000000" stroke="none">
<path d="M2633 4159 c191 -33 386 -111 552 -220 117 -77 304 -268 393 -402
147 -223 239 -439 289 -676 23 -108 26 -152 27 -311 1 -264 -28 -403 -126
-591 -189 -363 -566 -647 -970 -729 -129 -27 -334 -28 -458 -5 -244 47 -519
177 -722 341 -77 62 -184 186 -251 290 -98 151 -185 396 -188 526 0 18 -4 42
-9 53 -17 41 -6 -213 14 -313 14 -66 74 -219 122 -309 62 -115 100 -165 188
-242 53 -47 188 -141 201 -141 2 0 28 -15 57 -33 143 -91 367 -178 558 -217
150 -31 388 -24 538 15 283 73 514 207 733 425 254 253 387 530 419 874 23
243 -41 580 -151 798 -16 32 -27 58 -24 58 7 0 73 -133 94 -193 94 -257 135
-629 97 -886 -39 -259 -152 -497 -347 -727 -86 -102 -157 -163 -262 -226 -424
-255 -908 -323 -1330 -187 -134 42 -356 157 -465 239 -52 38 -95 70 -97 70 -1
0 -6 -7 -9 -16 -3 -8 -2 -12 4 -9 6 3 10 -1 10 -9 0 -9 4 -16 9 -16 5 0 14
-14 21 -30 7 -17 16 -30 21 -30 5 0 9 -4 9 -10 0 -8 80 -91 112 -115 7 -6 69
-38 138 -73 235 -117 442 -167 685 -166 418 2 742 146 1079 478 241 238 402
523 468 829 31 146 31 407 -1 557 -59 280 -188 553 -359 762 -88 109 -245 255
-350 327 -188 127 -448 227 -655 250 -151 17 -185 12 -64 -10z"/>
<path d="M2388 4123 c12 -2 30 -2 40 0 9 3 -1 5 -23 4 -22 0 -30 -2 -17 -4z"/>
<path d="M2308 4113 c6 -2 18 -2 25 0 6 3 1 5 -13 5 -14 0 -19 -2 -12 -5z"/>
<path d="M2258 4103 c7 -3 16 -2 19 1 4 3 -2 6 -13 5 -11 0 -14 -3 -6 -6z"/>
<path d="M2340 4023 c-286 -31 -608 -175 -810 -363 l-45 -42 45 35 c171 132
363 223 550 261 100 19 332 39 370 31 l30 -7 -3 -143 -2 -143 -44 -7 c-149
-23 -289 -79 -426 -170 -84 -56 -211 -173 -254 -234 -39 -54 -9 -32 47 35 142
171 410 324 617 352 l60 8 -5 -45 -5 -44 -64 -13 c-209 -43 -402 -158 -540
-323 l-41 -48 44 -23 43 -23 73 77 c142 149 323 238 503 248 l57 3 0 292 0
293 -82 -2 c-46 0 -99 -3 -118 -5z"/>
<path d="M2691 3949 c-1 -8 -12 -30 -26 -49 -19 -25 -25 -46 -25 -82 0 -31 5
-50 13 -52 6 -2 55 -10 107 -19 52 -8 106 -19 120 -25 14 -5 29 -10 34 -10 5
0 12 -4 15 -9 3 -4 35 -23 71 -42 199 -104 413 -306 522 -494 125 -215 201
-582 169 -825 -24 -190 -161 -492 -285 -632 l-31 -35 32 29 c47 43 149 188
195 279 129 257 166 533 108 801 -95 435 -334 737 -745 944 -111 55 -275 111
-254 86 6 -8 30 -23 53 -34 l41 -20 -34 5 c-18 3 -53 5 -77 5 l-44 0 0 47 c0
34 7 57 26 84 14 21 24 44 21 51 -4 9 -6 8 -6 -3z"/>
<path d="M2373 3893 c9 -2 23 -2 30 0 6 3 -1 5 -18 5 -16 0 -22 -2 -12 -5z"/>
<path d="M2692 3865 c0 -16 2 -22 5 -12 2 9 2 23 0 30 -3 6 -5 -1 -5 -18z"/>
<path d="M3060 3886 c0 -2 7 -7 16 -10 8 -3 12 -2 9 4 -6 10 -25 14 -25 6z"/>
<path d="M3120 3857 c0 -3 35 -27 78 -54 204 -130 376 -330 505 -588 92 -184
153 -450 158 -688 1 -53 5 -75 12 -68 14 14 -8 269 -34 396 -42 205 -114 376
-232 553 -79 118 -226 277 -327 353 -63 47 -160 105 -160 96z"/>
<path d="M1478 3668 c-155 -153 -317 -393 -391 -582 -62 -157 -88 -286 -94
-468 -6 -172 4 -265 44 -418 14 -52 24 -110 24 -128 -4 -96 89 -320 195 -469
60 -84 107 -127 54 -50 -31 46 -31 60 -1 33 13 -12 21 -14 26 -6 5 8 11 8 20
0 9 -8 11 -4 7 16 -2 14 -11 28 -18 31 -8 3 -14 9 -14 14 0 4 -18 37 -41 71
-256 394 -299 931 -114 1419 77 201 217 433 333 552 94 95 72 84 -30 -15z"/>
<path d="M2640 3660 c0 -6 13 -10 30 -10 84 0 268 -56 399 -121 53 -27 85 -40
71 -29 -74 58 -252 128 -375 149 -120 20 -125 21 -125 11z"/>
<path d="M2600 3506 l0 -55 38 -6 c87 -13 139 -24 164 -34 l27 -10 -27 -66
c-22 -57 -29 -66 -46 -61 -51 14 -157 28 -163 22 -12 -12 19 -26 57 -26 19 0
62 -5 95 -11 33 -6 70 -12 83 -13 12 0 22 -5 22 -9 0 -5 4 -6 8 -3 4 2 14 1
21 -3 21 -13 -15 -75 -37 -66 -46 20 -162 53 -204 59 l-48 7 0 -54 0 -54 78
-16 c101 -22 105 -25 91 -65 -6 -18 -12 -32 -12 -32 -1 0 -31 9 -65 20 -102
32 -102 32 -95 -46 6 -61 5 -66 -13 -62 -16 3 -19 14 -22 67 l-3 63 -42 -6
c-88 -14 -189 -74 -237 -140 -35 -47 -39 -67 -8 -40 l21 19 -18 -27 -17 -28
-57 31 c-73 39 -91 61 -91 112 0 36 6 46 52 89 83 79 228 148 309 148 30 0 39
-15 39 -66 0 -27 4 -34 20 -34 19 0 20 7 20 96 l0 97 -60 -7 c-122 -14 -224
-59 -337 -148 -81 -64 -107 -99 -88 -119 12 -12 10 -18 -10 -44 l-24 -29 -28
20 c-151 112 -256 184 -261 180 -3 -3 -11 -1 -19 6 -11 9 -19 6 -36 -12 l-22
-24 23 19 24 20 31 -37 c18 -21 45 -53 60 -73 16 -19 33 -32 39 -29 5 3 1 -11
-10 -32 -27 -54 -80 -222 -90 -288 l-9 -56 44 0 c38 0 43 3 43 23 0 40 28 154
50 206 l22 50 48 -24 47 -24 -23 -82 c-13 -45 -24 -92 -24 -105 0 -23 3 -24
60 -24 l60 0 0 -42 c0 -24 3 -60 7 -81 l6 -39 -67 4 -67 3 7 -45 c13 -98 56
-240 100 -329 37 -75 62 -109 123 -170 104 -103 238 -179 349 -197 l42 -7 0
110 0 110 -94 15 c-88 14 -192 53 -246 91 -20 14 -19 15 21 65 l40 52 38 -19
c36 -19 120 -43 192 -55 l36 -6 6 61 c5 57 20 85 39 73 4 -3 8 -34 8 -68 l0
-63 53 9 c67 11 160 58 215 108 24 22 47 40 50 40 4 0 28 -25 54 -54 l48 -54
-57 -46 c-81 -64 -163 -103 -271 -129 l-92 -22 0 -114 0 -113 76 7 c41 4 104
15 140 25 35 10 66 15 69 10 12 -19 -186 -80 -261 -80 -22 0 -33 -4 -29 -11 4
-6 4 -71 0 -145 -6 -104 -11 -134 -21 -134 -11 0 -14 28 -14 145 l0 145 -52 0
c-114 1 -260 46 -358 111 -135 91 -252 314 -306 583 l-17 88 -69 -4 -68 -5 0
48 0 49 -55 0 -56 0 3 -67 3 -68 42 3 c38 3 46 0 70 -29 15 -17 39 -68 53
-113 29 -89 67 -168 111 -233 16 -23 29 -48 29 -55 -1 -7 -31 -35 -67 -63 -74
-56 -83 -61 -83 -46 0 6 -20 43 -45 84 -82 136 -131 275 -159 452 -10 68 -14
79 -15 47 -2 -65 36 -235 72 -326 17 -44 53 -115 78 -158 l47 -77 -52 -45 -51
-44 19 -35 c10 -20 29 -46 41 -57 l23 -21 48 36 c27 21 51 39 53 41 2 2 -8 21
-22 43 l-26 39 71 52 c39 28 76 53 82 55 6 3 26 -15 44 -38 l32 -42 -28 -25
c-15 -14 -47 -41 -71 -61 l-44 -36 66 -54 c148 -122 337 -208 510 -232 l83
-11 -6 -47 c-6 -46 -5 -47 22 -53 15 -3 35 -3 45 1 12 5 14 3 8 -7 -6 -10 -4
-11 11 -5 10 4 53 12 94 17 286 33 553 164 735 360 67 73 92 108 77 108 -4 0
-34 -31 -65 -69 -151 -184 -416 -329 -684 -376 -127 -22 -125 -23 -121 27 l3
42 80 12 c99 14 215 45 291 79 149 66 388 268 480 407 88 132 147 294 161 441
l6 67 -37 0 c-35 0 -36 1 -36 39 0 39 -1 40 -37 43 -33 3 -38 7 -41 31 -2 19
1 27 12 27 23 0 20 43 -9 144 -65 223 -197 398 -404 531 -54 35 -76 45 -79 35
-3 -8 -15 -24 -28 -37 -65 -65 -161 29 -108 105 13 19 24 22 57 20 34 -2 45
-9 62 -34 12 -18 47 -45 85 -65 71 -37 188 -121 266 -192 62 -56 167 -201 204
-282 33 -70 64 -189 56 -210 -3 -9 0 -15 9 -15 10 0 14 -12 14 -42 -1 -24 4
-54 10 -68 8 -20 10 -10 10 55 -2 279 -152 541 -428 744 -144 106 -343 189
-496 206 -33 3 -70 8 -82 11 -22 4 -23 1 -23 -50z m532 -370 c98 -99 164 -223
191 -358 l13 -63 57 -3 57 -3 0 -64 0 -65 -60 0 -60 0 0 -30 c0 -30 -1 -30
-55 -30 l-55 0 -1 88 c-1 87 -1 87 -13 42 -13 -49 -25 -55 -111 -60 l-40 -2
36 -12 c20 -6 44 -18 54 -26 17 -14 16 -15 -10 -20 -22 -4 -30 -13 -40 -47
-25 -85 -75 -138 -168 -177 l-35 -14 13 31 c8 20 23 34 40 39 38 10 63 35 91
90 27 53 31 88 10 88 -10 0 -13 22 -12 103 1 96 -1 106 -31 168 -40 82 -99
157 -153 194 -37 25 -39 30 -26 44 21 20 52 3 122 -67 63 -63 96 -117 125
-206 l22 -66 38 0 c45 0 46 3 23 81 -35 116 -102 214 -198 288 -50 39 -59 43
-81 33 -39 -18 -32 6 26 92 l51 75 58 -39 c32 -22 87 -69 122 -104z m-594
-201 c-10 -10 -138 -44 -138 -36 0 11 60 43 94 51 29 6 56 -3 44 -15z m150
-54 c79 -41 135 -135 136 -228 1 -50 2 -53 27 -53 15 0 32 7 39 16 8 9 25 14
44 12 27 -3 31 -7 34 -34 4 -40 -21 -63 -49 -46 -10 7 -39 12 -63 12 -37 0
-46 -4 -51 -21 -12 -37 -78 -101 -130 -125 -128 -60 -279 -3 -334 126 -94 217
141 447 347 341z m132 -18 l25 -28 -35 30 c-55 47 -56 48 -35 37 11 -6 31 -23
45 -39z m-645 -143 c3 -5 15 -10 26 -10 10 0 27 -4 37 -9 9 -6 29 -12 45 -16
15 -3 27 -12 27 -20 0 -13 -17 -15 -102 -14 -57 1 -109 6 -115 11 -16 13 -17
40 -1 56 15 15 74 16 83 2z m45 -175 c0 -8 9 -39 21 -70 25 -67 100 -152 163
-186 28 -15 46 -31 46 -42 0 -44 -148 54 -203 135 -56 81 -83 171 -54 181 16
6 27 -1 27 -18z m1245 -77 c-13 -100 -59 -248 -77 -248 -5 0 -25 7 -44 15 -28
12 -35 19 -29 32 17 40 45 136 45 151 -1 10 -14 -23 -30 -72 -16 -49 -33 -93
-39 -99 -6 -6 -6 -18 -1 -33 8 -19 5 -27 -18 -42 -15 -11 -44 -27 -64 -35 -21
-9 -38 -18 -38 -21 0 -3 173 -137 199 -153 2 -1 -4 -14 -13 -28 l-17 -26 -28
23 c-16 13 -76 61 -134 108 -97 78 -104 86 -90 102 8 9 12 21 9 26 -3 6 0 12
7 15 21 8 85 144 111 237 l24 85 48 6 c27 3 80 7 117 7 l69 2 -7 -52z m-1067
-67 c51 -26 56 -37 7 -17 -43 18 -105 65 -105 79 0 6 12 -1 28 -15 15 -14 46
-35 70 -47z m-381 -3 c-3 -8 -6 -5 -6 6 -1 11 2 17 5 13 3 -3 4 -12 1 -19z
m37 -75 c9 -18 14 -33 12 -33 -6 0 -36 55 -36 66 0 11 5 3 24 -33z m764 25 c7
-7 12 -22 12 -35 0 -27 -42 -42 -65 -23 -28 23 -11 70 25 70 9 0 21 -5 28 -12z
m-161 -41 c-8 -25 -167 -32 -167 -8 0 14 9 16 90 17 56 1 80 -2 77 -9z m-546
-74 c13 -16 12 -17 -3 -4 -10 7 -18 15 -18 17 0 8 8 3 21 -13z m929 -196 c0
-2 -10 -12 -22 -23 l-23 -19 19 23 c18 21 26 27 26 19z m-55 -47 c-3 -5 -16
-15 -28 -21 -19 -9 -19 -8 3 10 28 23 34 26 25 11z m225 -73 c0 -2 -12 -14
-27 -28 l-28 -24 24 28 c23 25 31 32 31 24z m110 -17 c12 -8 0 -24 -65 -88
-74 -72 -232 -182 -262 -182 -26 0 -12 19 35 45 69 41 175 128 223 185 45 54
46 54 69 40z m-170 -33 c0 -2 -10 -12 -22 -23 l-23 -19 19 23 c18 21 26 27 26
19z"/>
<path d="M2502 2694 c-27 -19 -29 -64 -4 -87 28 -25 112 -23 146 4 32 26 33
43 1 74 -19 20 -34 25 -72 25 -28 0 -58 -7 -71 -16z"/>
<path d="M1402 3095 c-17 -37 -14 -45 4 -12 9 16 14 31 11 33 -2 2 -9 -7 -15
-21z"/>
<path d="M1712 3043 c-49 -76 -92 -180 -118 -282 -26 -103 -28 -111 -16 -111
4 0 13 32 20 70 15 90 60 207 113 294 47 78 47 101 1 29z"/>
<path d="M1356 2978 c-60 -161 -94 -346 -67 -362 7 -5 11 6 11 36 0 68 28 212
60 306 16 48 28 88 26 90 -2 1 -15 -30 -30 -70z"/>
<path d="M1481 2864 c0 -11 3 -14 6 -6 3 7 2 16 -1 19 -3 4 -6 -2 -5 -13z"/>
<path d="M1471 2824 c0 -11 3 -14 6 -6 3 7 2 16 -1 19 -3 4 -6 -2 -5 -13z"/>
<path d="M1461 2784 c0 -11 3 -14 6 -6 3 7 2 16 -1 19 -3 4 -6 -2 -5 -13z"/>
<path d="M1452 2735 c0 -16 2 -22 5 -12 2 9 2 23 0 30 -3 6 -5 -1 -5 -18z"/>
<path d="M1442 2675 c0 -16 2 -22 5 -12 2 9 2 23 0 30 -3 6 -5 -1 -5 -18z"/>
<path d="M1372 2440 c0 -19 2 -27 5 -17 2 9 2 25 0 35 -3 9 -5 1 -5 -18z"/>
<path d="M3863 2360 c0 -30 2 -43 4 -27 2 15 2 39 0 55 -2 15 -4 2 -4 -28z"/>
<path d="M1382 2370 c0 -14 2 -19 5 -12 2 6 2 18 0 25 -3 6 -5 1 -5 -13z"/>
<path d="M1391 2314 c0 -11 3 -14 6 -6 3 7 2 16 -1 19 -3 4 -6 -2 -5 -13z"/>
<path d="M1401 2264 c0 -11 3 -14 6 -6 3 7 2 16 -1 19 -3 4 -6 -2 -5 -13z"/>
<path d="M1411 2230 c0 -8 4 -24 9 -35 5 -13 9 -14 9 -5 0 8 -4 24 -9 35 -5
13 -9 14 -9 5z"/>
<path d="M1450 2105 c0 -5 5 -17 10 -25 5 -8 10 -10 10 -5 0 6 -5 17 -10 25
-5 8 -10 11 -10 5z"/>
<path d="M1480 2034 c0 -6 7 -19 16 -30 14 -18 14 -18 3 6 -14 31 -19 36 -19
24z"/>
<path d="M3284 1588 l-19 -23 23 19 c12 11 22 21 22 23 0 8 -8 2 -26 -19z"/>
<path d="M1380 1576 c0 -2 8 -10 18 -17 15 -13 16 -12 3 4 -13 16 -21 21 -21
13z"/>
<path d="M3229 1543 c-13 -16 -12 -17 4 -4 9 7 17 15 17 17 0 8 -8 3 -21 -13z"/>
<path d="M3189 1513 c-13 -16 -12 -17 4 -4 16 13 21 21 13 21 -2 0 -10 -8 -17
-17z"/>
<path d="M2888 1363 c7 -3 16 -2 19 1 4 3 -2 6 -13 5 -11 0 -14 -3 -6 -6z"/>
<path d="M2848 1353 c7 -3 16 -2 19 1 4 3 -2 6 -13 5 -11 0 -14 -3 -6 -6z"/>
<path d="M2808 1343 c7 -3 16 -2 19 1 4 3 -2 6 -13 5 -11 0 -14 -3 -6 -6z"/>
<path d="M2358 1333 c7 -3 16 -2 19 1 4 3 -2 6 -13 5 -11 0 -14 -3 -6 -6z"/>
<path d="M2748 1333 c6 -2 18 -2 25 0 6 3 1 5 -13 5 -14 0 -19 -2 -12 -5z"/>
<path d="M2423 1323 c9 -2 23 -2 30 0 6 3 -1 5 -18 5 -16 0 -22 -2 -12 -5z"/>
<path d="M2683 1323 c9 -2 23 -2 30 0 6 3 -1 5 -18 5 -16 0 -22 -2 -12 -5z"/>
<path d="M2548 1313 c12 -2 32 -2 45 0 12 2 2 4 -23 4 -25 0 -35 -2 -22 -4z"/>
</g>
</svg>